<?xml version="1.0" standalone="no"?><!DOCTYPE svg PUBLIC "-//W3C//DTD SVG 1.1//EN" "http://www.w3.org/Graphics/SVG/1.1/DTD/svg11.dtd"><svg class="icon" width="200px" height="199.80px" viewBox="0 0 1025 1024" version="1.1" xmlns="http://www.w3.org/2000/svg"><path fill="#d8d8d8" d="M367.1385 179.903c-13.032 12.813-25.83 25.211-38.422 37.815-27.086 27.111-54.065 54.329-81.09 81.501-3.055 3.072-5.892 6.415-9.237 9.132-5.2 4.223-6.6 10.009-6.609 15.998-0.124 78.986-0.08 157.972-0.07 236.958 0 0.657 0.109 1.314 0.203 2.381h69.117v-5.493c0-38.493-0.004-76.986 0.002-115.48 0.002-12.177 4.382-16.591 16.476-16.592 48.658-0.006 97.316-0.009 145.974 0.002 11.739 0.002 16.174 4.504 16.177 16.389 0.008 38.327 0.003 76.653 0.003 114.98v6.26h78.336v-5.744-110.98c0-15.383 3.48-18.909 18.664-18.909h116.32c0-2.12-0.042-4.029 0.007-5.936 0.323-12.461-0.297-25.041 1.247-37.35 1.877-14.962 8.375-28.493 19.235-39.174 14.912-14.666 32.841-22.856 54.151-22.539 2.09 0.031 4.18 0.004 7.296 0.004-13.905-20.402-19.661-42.199-18.988-65.793-1.345-0.411-2.421-0.774-3.516-1.069-7.033-1.893-10.023-5.303-10.383-12.67-0.502-10.288-1.223-20.602-0.962-30.883 0.79-31.088 11.67-58.222 34.182-79.887 18.766-18.061 41.378-28.272 67.584-30.805 26.804-2.591 51.207 3.949 73.31 18.563 26.632 17.61 41.649 43.036 47.633 74.236 3.182 16.59 0.161 33.131 0.621 49.687 0.122 4.384-2.116 8.233-6.279 10.724-1.218 0.728-2.441 2.714-2.401 4.088 0.653 22.865-5.522 43.679-18.303 62.59-0.262 0.388-0.386 0.87-0.965 2.218 2.287 0 4.165 0.076 6.035-0.012 20.135-0.937 38.11 4.675 53.522 17.821 13.279 11.326 21.705 25.713 24.362 42.866 1.302 8.403 0.351 17.157 0.393 25.752 0.008 1.663-0.16 3.326-0.16 4.989-0.008 65.155-0.131 130.311 0.144 195.465 0.036 8.518 0.069 16.767-2.729 24.922-5.598 16.312-22.231 29.124-39.49 29.784-8.033 0.307-16.087 0.052-24.924 0.052v4.49c0 101.149 0.011 202.298-0.048 303.446-0.002 3.437 0.227 5.539 4.38 6.849 2.737 0.863 6.072 4.534 6.44 7.307 1.041 7.838 1.356 15.916 0.695 23.793-0.612 7.288-4.989 10.413-12.545 11.017-1.491 0.119-2.998 0.033-4.498 0.033H19.6925c-1.333 0-2.669 0.055-3.999-0.016-8.594-0.46-13.081-4.885-13.604-13.433-0.091-1.494-0.022-2.999-0.022-4.498 0-78.153 0.137-156.306-0.092-234.458-0.061-20.923-1.159-41.846-1.937-62.764-0.506-13.602 3.378-26.264 7.823-38.828 7.656-21.636 20.042-40.34 35.379-57.259 1.243-1.371 1.735-3.866 1.745-5.842 0.118-22.662 0.069-45.325 0.078-67.988 0.005-12.11 4.411-16.49 16.565-16.505 4.333-0.005 8.666-0.037 12.998 0.007 10.235 0.105 15.007 4.798 15.066 14.983 0.071 12.331 0.017 24.662 0.018 36.993v5.482c15.874-7.164 31.613-12.939 48.198-14.178 16.45-1.229 33.064-0.269 49.835-0.269v-184.42c-33.349 18.134-66.634 18.962-100.566 1.685-0.189 1.653-0.444 2.863-0.448 4.074-0.034 9.665 0.087 19.331-0.052 28.994-0.135 9.345-4.904 14.089-14.228 14.287-6.163 0.131-12.331 0.082-18.496 0.014-10.129-0.111-14.857-4.885-14.875-15.17-0.047-26.329 0.309-52.663-0.151-78.984-0.237-13.565-2.536-27.098-2.722-40.661-0.305-22.286 6.634-42.477 20.066-60.36 14.928-19.876 34.885-31.78 58.878-37.435 2.269-0.535 4.697-1.713 6.354-3.315 10.424-10.074 20.645-20.356 30.943-30.561 42.609-42.223 85.274-84.389 127.783-126.712 7.644-7.61 14.597-15.91 21.965-23.803 6.173-6.613 13.384-10.208 22.934-9.746 13.134 0.635 26.336 0.536 39.48 0.018 7.926-0.312 13.902 2.93 19.119 8.023 13.117 12.805 25.915 25.936 39.039 38.734 7.017 6.843 14.675 13.031 21.642 19.921 34.459 34.081 68.731 68.352 103.201 102.422 6.965 6.883 14.846 12.851 21.679 19.852 6.383 6.541 9.8 14.633 7.895 24.093-1.41 7.004-4.711 12.876-9.987 17.957-13.68 13.176-27.098 26.63-40.395 40.195-1.73 1.765-2.907 4.802-3.005 7.303-0.355 8.984-0.029 17.993-0.205 26.988-0.053 2.722 0.963 3.841 3.459 4.402 16.714 3.753 28.422 13.803 37.753 28.002 5.928 9.021 7.93 18.315 7.863 28.605-0.072 10.998 0.025 21.996-0.028 32.994-0.051 10.483-4.788 15.168-15.311 15.245-4.832 0.035-9.666 0.058-14.497-0.005-9.917-0.131-14.713-4.855-14.808-14.734-0.092-9.497-0.073-18.997-0.009-28.495 0.102-15.14-4.762-18.473-15.47-19.094-8.553-0.496-17.243-0.126-25.763 0.829-5.641 0.633-10.074 7.279-10.104 13.171-0.054 10.83 0.004 21.66-0.02 32.49-0.025 11.187-4.609 15.791-15.725 15.84-4.166 0.018-8.332 0.026-12.498-0.002-10.754-0.072-15.357-4.754-15.421-15.648-0.003-0.5 0.029-1.002-0.005-1.499-0.638-9.405-1.49-18.801-1.877-28.216-0.556-13.516 2.886-25.978 10.699-37.144 7.228-10.331 17.02-17.199 28.889-21.077 2.58-0.843 3.391-1.971 3.335-4.542-0.143-6.496 0.929-13.199-0.361-19.431-1.001-4.836-3.973-9.959-7.536-13.463-32.427-31.889-65.175-63.451-97.84-95.099-0.339-0.325-0.812-0.517-1.178-0.745z m-94.247 625.169h239.411c1.333 0 2.667-0.029 3.998 0.007 9.356 0.256 14.093 4.904 14.333 14.209 0.116 4.495 0.025 8.996 0.022 13.495-0.008 12.731-4.257 16.937-17.129 16.938-78.139 0.002-156.278 0.001-234.417 0.001h-6.02v128.991h488.587v-229.57H272.8915v55.929z m-66.921-99.988h4.904c203.369-0.033 406.739-0.065 610.108-0.104a34.73 34.73 0 0 0 3.489-0.159c17.503-1.77 29.394-12.842 39.283-25.653 10.597-13.727 8.812-37.581-2.093-52.482-8.348-11.407-18.487-17.255-33.638-17.217-175.113 0.441-350.229 0.246-525.343 0.326-22.459 0.01-44.92 0.502-67.376 0.983-26.755 0.573-53.514 1.138-80.252 2.181-12.276 0.479-24.434 2.454-35.998 7.035-24.103 9.548-43.507 24.778-56.833 47.247-8.847 14.918-15.383 30.785-15.421 48.366-0.186 85.974-0.085 171.949-0.085 257.923v5.154h181.995v-229.95c-10.285 0-20.251 0.128-30.21-0.076-3.089-0.063-4.573 1.364-6.461 3.516-5.13 5.848-9.998 12.333-16.269 16.701-26.026 18.13-53.617 20.332-81.774 5.144-27.37-14.764-40.819-43.93-37.603-72.757 3.135-28.109 18.122-48.641 44.123-60.894 25.518-12.025 61.137-6.023 81.365 13.499 14.485 13.98 21.936 30.959 24.089 51.217z m747.633-80.989h7.704c11.924 0 12.78-0.711 12.615-12.651-0.955-68.912 2.355-137.871-2.158-206.732-0.491-7.49-2.208-15.287-5.22-22.12-3.359-7.621-10.273-11.287-19.129-12.222-15.925-1.681-31.687-3.236-47.494 0.836-2.389 0.615-5.193-0.184-7.772-0.556-3.54-0.51-7.031-1.617-10.576-1.785-6.318-0.298-12.668-0.286-18.991-0.05-34.717 1.297-69.571-2.973-104.195 2.884-10.56 1.786-19.61 10.98-19.721 21.729-0.077 7.482 0.172 14.973-0.11 22.445-0.484 12.864-1.738 25.713-1.836 38.575-0.265 34.658-0.09 69.32-0.09 103.981v5.351h31.341v-15.708c0-30.661-0.011-61.322 0.006-91.983 0.006-11.433 4.576-15.939 16.097-15.969 3.666-0.01 7.332-0.006 10.998-0.001 12.141 0.016 16.544 4.4 16.546 16.524 0.007 33.827 0.003 67.654 0.003 101.481v5.962c8.318 0 15.934 0.869 23.262-0.213 9.884-1.459 17.903 2.031 26.505 5.947 20.445 9.306 35.895 23.45 46.566 43.552v-5.223-106.98c0-15.497-0.077-30.995 0.03-46.491 0.067-9.639 4.867-14.363 14.485-14.543 4.664-0.087 9.331-0.018 13.997-0.016 12.877 0.006 17.134 4.207 17.135 16.936 0.003 53.49 0.001 106.98 0.001 160.471l0.001 6.569zM345.0115 472.968v90.847h89.582v-90.847h-89.582z m562.685 215.441c-7.482 13.086-16.148 23.723-26.519 32.912-2.779 2.462-3.637 5.073-3.633 8.679 0.089 81.098 0.068 162.196 0.068 243.295v5.471h30.084V688.409zM691.6465 563.9v-88.841h-89.576V563.9h89.576zM268.3015 117.679l-84.929 88.193c16.712 8.939 31.204 22.879 41.3 41.981l87.468-88.628-43.839-41.546z m536.655 631.273v229.792h28.584V748.952h-28.584zM134.6635 343.031c27.506-0.907 49.844-21.449 50.036-49.861 0.186-27.576-21.442-49.933-49.611-50.066-27.444-0.129-49.973 21.548-50.074 49.647-0.1 27.44 21.546 49.264 49.649 50.28z m718.469-86.235c-15.156 0-30.314 0.112-45.468-0.079-3.782-0.048-5.277 1.335-4.898 4.891 0.456 4.277 0.764 8.601 1.65 12.796 4.933 23.354 30.258 42.13 55.961 37.831 23.428-3.919 42.453-24.735 42.532-50.439 0.012-3.829-1.345-5.149-5.31-5.089-14.818 0.223-29.644 0.089-44.467 0.089z m-723.89 419.706c-15.708-0.766-31.207 13.283-32.663 28.302-2.014 20.778 14.066 35.976 31.457 36.738 16.721 0.732 32.004-13.385 33.248-31.026 1.234-17.51-13.792-34.312-32.042-34.014z m275.898-534.539l90.638 91.511 15.199-18.031-89.962-89.272a268622.23 268622.23 0 0 0-15.875 15.792z m425.548 66.843v-42.338c-16.937 9.521-26.079 23.235-27.794 42.338h27.794z m72.044 0.093c-1.46-14.841-7.088-26.746-18.699-36.287v36.287h18.699zM368.3755 101.915c-26.405 13.922-52.517-3.326-47.898-33.734l-14.185 11.973 42.797 40.481 19.286-18.72z"  /><path fill="#d8d8d8" d="M66.5195 445.1c16.754 0.017 29.212 12.795 29.207 29.957-0.005 17.232-12.607 29.734-29.961 29.724-17.494-0.01-29.771-12.598-29.717-30.467 0.051-17.076 12.731-29.232 30.471-29.214zM581.5075 796.045c16.751 0.033 29.178 12.841 29.154 30.048-0.022 16.15-13.737 29.673-30.047 29.628-16.479-0.046-29.677-13.62-29.631-30.476 0.047-17.068 12.766-29.235 30.524-29.2zM783.8955 632.077c17.247 0.008 29.752 12.588 29.74 29.919-0.011 17.2-12.663 29.777-29.938 29.763-17.256-0.014-29.742-12.575-29.74-29.919 0.002-17.186 12.662-29.772 29.938-29.763zM664.3275 691.757c-17.174-0.007-29.405-12.584-29.367-30.197 0.037-17.247 12.581-29.515 30.145-29.482 16.224 0.03 29.57 13.57 29.529 29.979-0.037 14.757-12.778 30.727-30.307 29.7zM279.4425 692.757c-17.203-0.003-29.464-12.555-29.434-30.13 0.03-17.276 12.55-29.576 30.078-29.549 16.248 0.025 29.614 13.533 29.599 29.912-0.016 16.515-13.483 29.77-30.243 29.767zM376.0055 661.681c0.026-16.268 13.588-29.63 30.031-29.588 16.49 0.042 29.693 13.612 29.647 30.471-0.046 16.833-12.788 29.225-30.031 29.205-17.224-0.019-29.675-12.656-29.647-30.088zM533.7975 693.769c-16.16-0.018-29.782-13.425-29.793-29.32-0.011-16.664 13.556-30.394 29.996-30.357 16.844 0.039 29.711 13.187 29.679 30.328-0.031 16.97-12.655 29.368-29.882 29.349zM138.5035 261.123c16.756 0.017 29.218 12.793 29.213 29.95-0.004 17.239-12.6 29.741-29.955 29.731-17.508-0.01-29.777-12.583-29.724-30.461 0.052-17.078 12.729-29.238 30.466-29.22z"  /></svg>