<?xml version="1.0" standalone="no"?><!DOCTYPE svg PUBLIC "-//W3C//DTD SVG 1.1//EN" "http://www.w3.org/Graphics/SVG/1.1/DTD/svg11.dtd"><svg t="1585725445090" class="icon" viewBox="0 0 1024 1024" version="1.1" xmlns="http://www.w3.org/2000/svg" p-id="1268" xmlns:xlink="http://www.w3.org/1999/xlink" width="200" height="200"><defs><style type="text/css"></style></defs><path d="M859.275552 611.462704l-7.42388-63.550968a451.192668 451.192668 0 0 0 63.99896-13.567779c4.92792-2.047967 10.367832-5.951903 12.799792-19.199688 5.439912-27.647551-7.871872-68.158892-29.695517-90.302533L571.024236 87.503218a85.56661 85.56661 0 0 0-118.398076 0.319995L124.823486 424.521742c-22.015642 22.271638-35.327426 62.718981-29.951513 90.366531 2.623957 13.439782 8.127868 17.471716 13.183786 19.583682a379.769829 379.769829 0 0 0 54.463115 7.167883l-4.607925 63.99896c-9.343848-0.703989-56.575081-4.415928-74.750786-12.095803s-43.263297-26.047577-51.199168-66.238924c-9.407847-48.255216 10.367832-110.270208 47.039236-147.197608L407.314896 42.383951a149.821565 149.821565 0 0 1 208.444613-0.383993l0.57599 0.57599L944.90616 379.914466c36.543406 37.055398 56.255086 99.134389 46.78324 147.197608-7.871872 40.191347-31.99948 58.175055-51.199168 66.110926-14.78376 6.463895-61.055008 15.871742-81.21468 18.239704z" p-id="1269"></path><path d="M400.915 1023.104015H279.764969C198.358291 1023.104015 132.119368 972.800832 132.119368 910.721841V540.039864h63.99896v370.681977c0 22.399636 36.543406 48.383214 83.646641 48.383214H400.915zM725.005733 1023.104015H603.791703v-63.99896h121.21403c66.110926 0 121.982018-38.399376 121.982018-84.35063v-334.714561h63.99896v334.714561c0 81.790671-83.454644 148.349589-185.980978 148.34959z" p-id="1270"></path><path d="M635.791183 1024h-63.99896v-325.114717a20.159672 20.159672 0 0 0-19.199688-20.92766H471.313856a20.159672 20.159672 0 0 0-19.199688 20.92766V1024H388.115208v-325.114717a84.158632 84.158632 0 0 1 83.198648-84.92662h81.278679a84.158632 84.158632 0 0 1 83.198648 84.92662z" p-id="1271"></path></svg>