<?xml version="1.0" standalone="no"?><!DOCTYPE svg PUBLIC "-//W3C//DTD SVG 1.1//EN" "http://www.w3.org/Graphics/SVG/1.1/DTD/svg11.dtd"><svg class="icon" width="200px" height="200.00px" viewBox="0 0 1024 1024" version="1.1" xmlns="http://www.w3.org/2000/svg"><path fill="#d8d8d8" d="M612.3 686.2l-49.6-49.6c-4.7-4.7-5.7-11.9-2.6-17.9 6.1-11.9 11.2-24.4 15.4-37.4 2-6.4 7.8-10.9 14.5-10.9h70.1c13.8 0 24.9-11.1 24.9-24.9v-77.7c0-13.8-11.1-24.9-24.9-24.9h-70.5c-6.7 0-12.4-4.4-14.5-10.8-4.2-12.9-9.3-25.2-15.5-37.1-3.1-6-2.2-13.2 2.5-18l49.8-49.8c9.7-9.7 9.7-25.5 0-35.2l-55-55c-9.7-9.7-25.5-9.7-35.2 0l-50.2 50.2c-4.7 4.7-11.9 5.7-17.9 2.6-11.8-6-24.1-11-36.8-15-6.4-2-10.9-7.7-10.9-14.5v-71c0-13.8-11.2-24.9-24.9-24.9h-77.7c-13.8 0-24.9 11.2-24.9 24.9v71.4c0 6.7-4.4 12.4-10.8 14.5-12.6 4.1-24.7 9.1-36.3 15.1-6 3.1-13.2 2.2-17.9-2.6L163 237.3c-9.7-9.7-25.5-9.7-35.2 0l-55 54.9c-9.7 9.7-9.8 25.5 0 35.2l50.4 50.5c4.7 4.8 5.7 12 2.6 17.9-6 11.7-11 23.9-15.1 36.5-2.1 6.4-7.8 10.9-14.5 10.8-16.8 0-48.8 0-71.3-0.1C11.1 443 0 454.1 0 467.9v77.8c0 13.8 11.1 24.9 24.9 24.9l71.1 0.1c6.7 0 12.5 4.5 14.5 10.9 4.1 12.8 9.1 25.1 15.1 36.8 3.1 6 2.2 13.1-2.6 17.9l-50.1 50.1c-9.7 9.7-9.7 25.5 0 35.2l54.9 55c9.7 9.7 25.5 9.7 35.2 0l49.9-49.9c4.8-4.8 12-5.7 18-2.6 11.8 6.1 24.2 11.3 37.1 15.4 6.4 2.1 10.8 7.8 10.8 14.5v70.4c0 13.8 11.1 24.9 24.9 24.9h77.7c13.8 0 24.9-11.1 24.9-24.9v-70.2c0-6.7 4.5-12.5 10.9-14.5 13-4.1 25.4-9.3 37.4-15.4 6-3.1 13.2-2.2 17.9 2.6l49.5 49.5c9.7 9.7 25.5 9.7 35.2 0l55-55c9.9-9.7 9.9-25.5 0.1-35.2zM461.2 530.8c-9 47.4-47.2 85.6-94.6 94.6-84.8 16.1-157.8-56.9-141.8-141.8 9-47.4 47.2-85.6 94.6-94.6 84.9-16 157.9 57 141.8 141.8z"  /><path fill="#d8d8d8" d="M609.6 251.8l57.7 19.2c11.9 4 15 19.3 5.7 27.6L627.5 339c-6.7 6-7.3 16.2-1.4 23l57.3 64.6c6 6.7 16.2 7.3 23 1.4l45.5-40.4c9.4-8.3 24.2-3.4 26.7 8.9l12.2 59.6c1.8 8.8 10.4 14.5 19.2 12.7l84.6-17.4c8.8-1.8 14.5-10.4 12.7-19.2l-12.2-59.6c-2.5-12.3 9.2-22.7 21.1-18.7l57.7 19.2c8.5 2.8 17.7-1.8 20.6-10.3l27.3-81.9c2.8-8.5-1.8-17.7-10.3-20.6L953.7 241c-11.9-4-15-19.3-5.7-27.6l45.5-40.4c6.7-6 7.3-16.2 1.4-23l-57.3-64.6c-6-6.7-16.2-7.3-23-1.4l-45.5 40.4c-9.4 8.3-24.2 3.4-26.7-8.9L830.2 56c-1.8-8.8-10.4-14.5-19.2-12.7l-84.6 17.4c-8.8 1.8-14.5 10.4-12.7 19.2l12.2 59.6c2.5 12.3-9.2 22.7-21.1 18.7L647.2 139c-8.5-2.8-17.7 1.8-20.6 10.3l-27.3 81.9c-2.8 8.5 1.8 17.7 10.3 20.6z m144.6-28c12.6-22.6 38.8-35.7 64.4-32.3 46.1 6.2 71 55.9 48.3 96.5-12.6 22.6-38.8 35.7-64.4 32.2-46.1-6-71-55.7-48.3-96.4z m269.1 525.1l-25.3-83c-2.6-8.6-11.8-13.5-20.4-10.9l-58.5 17.8c-12 3.7-23.5-7.1-20.7-19.3l13.8-59.5c2-8.8-3.4-17.6-12.2-19.6l-84.5-19.6c-8.8-2-17.6 3.4-19.6 12.2l-13.8 59.5c-2.8 12.3-17.9 16.8-27.1 8.3l-44.7-41.7c-6.6-6.2-16.9-5.8-23.1 0.8L628 657.3c-6.2 6.6-5.8 16.9 0.8 23.1l44.7 41.7c9.2 8.6 5.6 23.9-6.4 27.6l-58.5 17.8c-8.6 2.6-13.5 11.8-10.9 20.4l25.3 83c2.6 8.6 11.8 13.5 20.4 10.9l58.5-17.8c12-3.7 23.5 7.1 20.7 19.3l-13.8 59.5c-2 8.8 3.4 17.6 12.2 19.6l84.5 19.6c8.8 2 17.6-3.4 19.6-12.2l13.8-59.5c2.8-12.3 17.9-16.8 27.1-8.3l44.7 41.7c6.6 6.2 16.9 5.8 23.1-0.8l59.2-63.4c6.2-6.6 5.8-16.9-0.8-23.1l-44.7-41.7c-9.2-8.6-5.6-23.9 6.4-27.6l58.5-17.8c8.6-2.6 13.5-11.7 10.9-20.4z m-181.9 77c-41.4 21.7-90.6-4.6-95.7-51-2.8-25.8 11.1-51.8 34-63.9 41.4-21.7 90.7 4.6 95.7 51 2.8 25.8-11.1 51.8-34 63.9z"  /></svg>