<?xml version="1.0" standalone="no"?><!DOCTYPE svg PUBLIC "-//W3C//DTD SVG 1.1//EN" "http://www.w3.org/Graphics/SVG/1.1/DTD/svg11.dtd"><svg t="1585725467578" class="icon" viewBox="0 0 1024 1024" version="1.1" xmlns="http://www.w3.org/2000/svg" p-id="1897" xmlns:xlink="http://www.w3.org/1999/xlink" width="200" height="200"><defs><style type="text/css"></style></defs><path d="M876.240294 1023.996907H147.759706A56.448385 56.448385 0 0 1 90.731371 968.257348V205.753076a56.448385 56.448385 0 0 1 57.028335-55.739559H541.802943l20.813731-0.708827 313.62362 0.708827a56.448385 56.448385 0 0 1 56.963896 55.739559v762.504272a56.448385 56.448385 0 0 1-56.963896 55.739559z m-721.070127-64.438796h713.659666V214.452313l-305.63321-0.708827-20.749292 0.708827H155.170167zM876.240294 214.452313z" p-id="1898"></path><path d="M183.072166 323.031684m32.219398 0l281.597538 0q32.219398 0 32.219398 32.219398l0 0q0 32.219398-32.219398 32.219398l-281.597538 0q-32.219398 0-32.219398-32.219398l0 0q0-32.219398 32.219398-32.219398Z" p-id="1899"></path><path d="M183.072166 616.228206m32.219398 0l281.597538 0q32.219398 0 32.219398 32.219398l0 0q0 32.219398-32.219398 32.219398l-281.597538 0q-32.219398 0-32.219398-32.219398l0 0q0-32.219398 32.219398-32.219398Z" p-id="1900"></path><path d="M183.072166 469.629945m32.219398 0l183.843885 0q32.219398 0 32.219398 32.219398l0 0q0 32.219398-32.219398 32.219398l-183.843885 0q-32.219398 0-32.219398-32.219398l0 0q0-32.219398 32.219398-32.219398Z" p-id="1901"></path><path d="M820.758491 157.230662h-38.663278v-41.75634H225.601771v41.75634h-38.663277v-46.267055a40.789758 40.789758 0 0 1 39.823176-41.498585h554.173645a40.725319 40.725319 0 0 1 39.823176 41.498585z" p-id="1902"></path><path d="M576.084383 69.465022h-38.663278a29.770724 29.770724 0 1 0-59.541447 0h-38.663278a68.434001 68.434001 0 1 1 136.868003 0z" p-id="1903"></path></svg>