<?xml version="1.0" standalone="no"?><!DOCTYPE svg PUBLIC "-//W3C//DTD SVG 1.1//EN" "http://www.w3.org/Graphics/SVG/1.1/DTD/svg11.dtd"><svg class="icon" width="200px" height="200.00px" viewBox="0 0 1024 1024" version="1.1" xmlns="http://www.w3.org/2000/svg"><path fill="#d8d8d8" d="M76.813 960l268.78-108.813-160-166.374L76.814 960z m576-742.406l-435.22 435.219 160 160 435.22-435.22-160-160z m-179.22 96l-64-64-108.78 115.219L256 326.406l115.187-115.219L230.407 64 64 224l249.594 249.594 160-160z m-307.187-70.407c-19.219-19.187-19.219-51.187 0-76.78 19.188-19.22 57.594-19.22 76.781 0 19.22 19.187 19.22 57.593 0 76.78-19.187 25.626-51.187 25.626-76.78 0zM960 230.407l-160-160-115.187 115.187 160 160L960 230.406zM793.594 864l-44.781-44.813L864 710.407l-51.187-57.594L697.593 768l-44.78-44.813L768 608l-51.187-51.187-160 166.374L793.593 960l160-166.406-44.78-44.781L793.593 864z" /></svg>