<?xml version="1.0" standalone="no"?><!DOCTYPE svg PUBLIC "-//W3C//DTD SVG 1.1//EN" "http://www.w3.org/Graphics/SVG/1.1/DTD/svg11.dtd"><svg class="icon" width="200px" height="200.00px" viewBox="0 0 1024 1024" version="1.1" xmlns="http://www.w3.org/2000/svg"><path fill="#d8d8d8" d="M194.048 176.64h543.744c14.848 0 27.136-12.288 27.136-27.136V27.136c0-14.848-12.288-27.136-27.136-27.136H194.048c-14.848 0-27.136 12.288-27.136 27.136v122.368c-0.512 14.848 11.776 27.136 27.136 27.136z m24.064-129.024h495.104v78.336H218.112V47.616zM904.192 956.416L660.48 376.832v-143.36h-50.176v142.848H445.44L210.432 935.424l-101.376-0.512c-19.456-0.512-28.16-10.752-20.48-29.696l212.48-487.424 19.456-47.104V233.472H271.36v136.192L27.648 921.088c-12.288 27.648 7.168 59.392 38.912 62.464l133.12 1.024c4.096 19.456 19.456 35.328 41.472 37.376l262.656 2.048H650.24l215.552-2.048c31.232-3.072 50.688-35.84 38.4-65.536z m-75.264 17.408l-200.192-1.024h-112.64l-236.544 2.048c-24.064-2.56-28.16-9.216-18.432-33.28L476.16 425.472h153.6l212.992 515.072c9.216 24.064 10.24 30.72-13.824 33.28zM582.144 630.784m-40.96 0a40.96 40.96 0 1 0 81.92 0 40.96 40.96 0 1 0-81.92 0ZM462.336 712.704m-40.96 0a40.96 40.96 0 1 0 81.92 0 40.96 40.96 0 1 0-81.92 0ZM543.744 820.224m-40.96 0a40.96 40.96 0 1 0 81.92 0 40.96 40.96 0 1 0-81.92 0Z" /></svg>