<?xml version="1.0" standalone="no"?><!DOCTYPE svg PUBLIC "-//W3C//DTD SVG 1.1//EN" "http://www.w3.org/Graphics/SVG/1.1/DTD/svg11.dtd"><svg t="1585725450731" class="icon" viewBox="0 0 1024 1024" version="1.1" xmlns="http://www.w3.org/2000/svg" p-id="1389" xmlns:xlink="http://www.w3.org/1999/xlink" width="200" height="200"><defs><style type="text/css"></style></defs><path d="M890.284004 1023.998914H133.715088A49.233173 49.233173 0 0 1 84.162634 975.148879V443.673264a49.233173 49.233173 0 0 1 49.552454-48.850036h756.568916a49.233173 49.233173 0 0 1 49.552455 48.850036v531.475615a49.233173 49.233173 0 0 1-49.552455 48.850035zM148.01889 960.142659h727.961313V458.679484H148.01889z m742.265114-501.463175z" p-id="1390"></path><path d="M521.769554 871.318607a163.791296 163.791296 0 1 1 163.791295-163.791295 163.919008 163.919008 0 0 1-163.791295 163.791295z m0-263.662479a99.93504 99.93504 0 1 0 99.93504 99.871184 99.998896 99.998896 0 0 0-99.93504-99.871184zM244.697261 402.29441h-63.856256V265.705879C180.841005 119.219629 286.459252 0 416.215163 0h142.527163c129.819768 0 235.438014 119.219629 235.438014 265.705879h-63.856256c0-111.301453-76.627507-201.849624-171.581758-201.849623H416.215163c-94.571115 0-171.517902 90.54817-171.517902 201.849623z" p-id="1391"></path></svg>