<?xml version="1.0" standalone="no"?><!DOCTYPE svg PUBLIC "-//W3C//DTD SVG 1.1//EN" "http://www.w3.org/Graphics/SVG/1.1/DTD/svg11.dtd"><svg class="icon" width="200px" height="200.00px" viewBox="0 0 1024 1024" version="1.1" xmlns="http://www.w3.org/2000/svg"><path fill="#d8d8d8" d="M844.288 79.872H179.712c-54.784 0-99.84 44.544-99.84 99.84v664.576c0 54.784 44.544 99.84 99.84 99.84h664.576c55.296 0 99.84-44.544 99.84-99.84V179.712c0-54.784-44.544-99.84-99.84-99.84z m41.984 764.416a42.391 42.391 0 0 1-42.496 42.496H179.2a42.391 42.391 0 0 1-42.496-42.496V179.712a42.391 42.391 0 0 1 42.496-42.496h664.576a42.391 42.391 0 0 1 42.496 42.496v664.576z"  /><path fill="#d8d8d8" d="M739.328 259.072H402.944c-11.264-28.16-38.912-48.128-71.168-48.128-42.496 0-76.8 34.304-76.8 76.8s34.304 76.8 76.8 76.8c32.256 0 59.904-19.968 71.168-48.128h336.384c15.872 0 28.672-12.8 28.672-28.672s-12.8-28.672-28.672-28.672z m-410.112 59.392c-16.896 0-30.72-13.824-30.72-30.72s13.824-30.72 30.72-30.72 30.72 13.824 30.72 30.72c0.512 16.896-13.312 30.72-30.72 30.72z m410.112 389.12H402.944c-11.264-28.16-38.912-48.128-71.168-48.128-42.496 0-76.8 34.304-76.8 76.8s34.304 76.8 76.8 76.8c32.256 0 59.904-19.968 71.168-48.128h336.384c15.872 0 28.672-12.8 28.672-28.672s-12.8-28.672-28.672-28.672z m-410.112 59.392c-16.896 0-30.72-13.824-30.72-30.72s13.824-30.72 30.72-30.72 30.72 13.824 30.72 30.72c0.512 16.896-13.312 30.72-30.72 30.72z m410.112-283.648H678.4c-11.264-28.16-38.912-48.128-71.168-48.128s-59.904 19.968-71.168 48.128H284.672C268.8 483.328 256 496.128 256 512s12.8 28.672 28.672 28.672h251.392c11.264 28.16 38.912 48.128 71.168 48.128s59.904-19.968 71.168-48.128h60.928C755.2 540.672 768 527.872 768 512s-12.8-28.672-28.672-28.672z m-132.096 58.88c-16.896 0-30.72-13.824-30.72-30.72s13.824-30.72 30.72-30.72 30.72 13.824 30.72 30.72-13.824 30.72-30.72 30.72z"  /></svg>